<svg
    xmlns="http://www.w3.org/2000/svg" viewBox="0 0 436.89 219.29">
    <defs>
        <style>.cls-1{fill:#202527}</style>
    </defs>
    <g id="Camada_19" data-name="Camada 19">
        <path class="cls-1" d="M261.28 257.3h11l29.41-63-6-12.85q-18.39-.17-36.78-.8 10.69-3.15 21.39-6.23 6-.14 12-.13l-20.9-44.36-68.14 4.81 40.51 85.58q20.86-3.1 41.7-6.31c-13 4.31-26.2 7.9-39.46 11z" transform="translate(-48.11 -39.66)"/>
        <path class="cls-1" d="M175.28 136.71l1.76-.19 13.59-28.45 12.15 25.66c19.66-2.17 39.29-4.47 58.81-7.31l7.62-1.15L229 39.72h-77.52L76.15 198.59q12 .36 24 .87-7.4 2-14.81 4-6.59 1.76-13.18 3.46l-24.05 50.8h71.06L177 136.59z" transform="translate(-48.11 -39.66)"/>
    </g>
    <path d="M484.33 157.07q.63-6.07.67-12.46a105.32 105.32 0 0 0-19.2-56.86q-18.71.44-37.42.43 7.31-2.36 14.63-4.66 7.88-2.47 15.76-4.86c-19.79-23.1-49-38.54-81.49-38.94-19.9-.13-136.1 0-136.1 0l17.75 36.22c9.12-3 18.33-5.78 27.58-8.31q14 .15 28 .12-27.24 5.18-54.43 10.56l12.37 25.24s97.88.09 101.51 0c26.35 0 45.5 19 46 43.79-.94 28.18-22.38 46.76-41.48 47.15s-64.84.61-64.84.61l-29.83 62.2s80.67 2.64 89.69 1.23h2.48l1.9-.51q27-7.5 53.6-16.61a9.69 9.69 0 0 0 1.23-.53c.6-.38 1.2-.76 1.79-1.15a14.31 14.31 0 0 0 4.95-9.86c3.17-1.2 6.34-2.42 9.49-3.69 5.47-2.21 8.93-8.51 7.76-15.17-.77-4.4-3.67-8.75-7.44-10.48l4.57-1q10.06-2.26 20.08-4.78a113.85 113.85 0 0 0 10.16-35.76q-9.18 1.4-18.37 2.69 8.85-2 17.68-4.32z" transform="translate(-48.11 -39.66)" fill="#aeb9ca" id="Camada_18" data-name="Camada 18"/>
</svg>