<svg xmlns="http://www.w3.org/2000/svg" viewBox="0 0 439.47 221.29"><defs><style>.cls-1{fill:none;stroke:#000;stroke-width:2px}</style></defs><g id="Camada_17" data-name="Camada 17"><path id="A_stroke" data-name="A stroke" class="cls-1" d="M48.11 257.72l103.37-218H229l72.71 154.56-29.41 63h-11l-70.67-149.21-71.46 149.65z" transform="translate(-46.53 -38.66)"/><path id="D_stroke" data-name="D stroke" class="cls-1" d="M283.86 257.3l29.83-62.2s45.73-.22 64.84-.61 40.54-19 41.48-47.14c-.54-24.76-19.69-43.79-46-43.79-3.63.08-101.51 0-101.51 0l-31.32-63.84s116.2-.13 136.1 0c58.33.73 106.13 49.91 107.72 104.89-.38 71.81-58.18 113.5-111.45 113.92-9.02 1.41-89.69-1.23-89.69-1.23z" transform="translate(-46.53 -38.66)"/></g></svg>