<svg
    xmlns="http://www.w3.org/2000/svg" viewBox="0 0 489 318">
    <path d="M114.49 109.16c-1.89 7-4.28 13.77-6.76 20.51l-1.91 5-2 5c-1.31 3.34-2.76 6.62-4.28 9.87-3.06 6.5-6.58 12.81-9.49 19.37S84.6 182.23 82.26 189c-1.19 3.39-2.32 6.81-3.57 10.17s-2.53 6.73-3.82 10.07c-2.61 6.69-5.19 13.39-8 20s-5.83 13.12-9 19.59S51.53 261.74 48 268l-.46-.19c2-6.95 4.32-13.75 6.73-20.52s5-13.48 7.67-20.13 5.66-13.19 8.6-19.74c1.47-3.28 2.94-6.55 4.48-9.8s3.17-6.45 4.75-9.68c3.2-6.44 6.21-13 8.83-19.64s4.66-13.61 7.14-20.35c1.24-3.37 2.57-6.71 4-10l2.16-4.93 2.26-4.9c3-6.5 6.21-12.95 9.87-19.2z"/>
    <path fill="none" d="M0 0h489v318H0z"/>
</svg>