<svg xmlns="http://www.w3.org/2000/svg" viewBox="0 0 489 318"><path d="M119.32 260.41c2.39-6.74 5.17-13.31 8-19.83l2.18-4.88 2.25-4.84q2.24-4.85 4.72-9.58c3.31-6.31 7-12.44 10.17-18.81s6.07-12.88 8.84-19.44c1.39-3.29 2.74-6.59 4.17-9.85s2.89-6.51 4.37-9.74c3-6.48 5.9-13 9-19.36s6.38-12.73 9.75-19 6.82-12.52 10.49-18.66l.36.18c-2.5 6.69-5.19 13.3-8 19.84s-5.75 13-8.75 19.49-6.27 12.79-9.47 19.14c-1.6 3.19-3.21 6.36-4.88 9.51s-3.39 6.27-5.08 9.4c-3.4 6.27-6.71 12.58-9.66 19.06s-5.47 13.17-8.33 19.69q-2.15 4.89-4.53 9.67l-2.38 4.78-2.44 4.75c-3.31 6.31-6.7 12.58-10.47 18.67z" data-name="A - left 2"/><path fill="none" d="M0 0h489v318H0z"/></svg>