<svg xmlns="http://www.w3.org/2000/svg" viewBox="0 0 489 318"><path d="M295.49 173.21c-3.56-5-6.74-10.16-9.85-15.39-1.54-2.62-3.07-5.24-4.54-7.9s-2.9-5.34-4.23-8.07c-2.66-5.47-5-11.11-7.77-16.51s-5.84-10.66-9.06-15.82c-1.6-2.59-3.23-5.16-4.79-7.77s-3.07-5.24-4.58-7.88c-3-5.27-6-10.54-8.88-15.91-5.62-10.78-11-21.68-15.64-33l.36-.19c6.91 10.07 13.09 20.54 19 31.14 3 5.31 5.7 10.73 8.46 16.14 1.37 2.71 2.76 5.42 4.08 8.15s2.59 5.51 3.88 8.26c2.56 5.52 5.27 11 8.27 16.24s6.45 10.32 9.57 15.54q2.34 3.92 4.43 8c1.43 2.69 2.79 5.4 4.14 8.13 2.67 5.46 5.26 11 7.48 16.67z" data-name="A - right 2"/><path fill="none" d="M0 0h489v318H0z"/></svg>