<svg xmlns="http://www.w3.org/2000/svg" viewBox="0 0 489 318"><path d="M402.57 115.31a20.79 20.79 0 0 1 7.76 4.47 24 24 0 0 1 3.15 3.3 27.08 27.08 0 0 1 2.56 3.79 31.74 31.74 0 0 1 3.24 8.55 34.42 34.42 0 0 1 .85 9c-.25 6-1.8 11.8-3.41 17.42-.43 1.4-.8 2.82-1.25 4.22l-.64 2.1-.17.53c-.07.2-.15.38-.22.55-.14.36-.31.69-.47 1a41.57 41.57 0 0 1-4.89 7.49l-1.47 1.7c-.5.56-1.05 1.07-1.57 1.61a40.06 40.06 0 0 1-3.36 3c-1.18.93-2.42 1.78-3.66 2.63s-2.57 1.57-3.89 2.28a61.6 61.6 0 0 1-16.86 6c-2.95.67-5.78 1.06-8.67 1.52s-5.76.87-8.65 1.25c-5.78.76-11.57 1.46-17.41 1.87l-.08-.4c5.6-1.74 11.25-3.18 16.91-4.57 2.83-.69 5.67-1.33 8.52-2s5.74-1.19 8.46-1.88 5.48-1.42 8.2-2.18l4-1.41c1.31-.52 2.59-1.11 3.89-1.66a55.09 55.09 0 0 0 14-9.34 29.22 29.22 0 0 0 5.3-6.63 10.28 10.28 0 0 0 .49-.93 3.46 3.46 0 0 0 .2-.45l.17-.51.68-2.06c.48-1.36.8-2.77 1.16-4.17a60.12 60.12 0 0 0 1.32-17.07 58.57 58.57 0 0 0-1-8.31 36.19 36.19 0 0 0-2.52-7.88 29.45 29.45 0 0 0-10.85-12.6z" data-name="D - left 2"/><path fill="none" d="M0 0h489v318H0z"/></svg>