<svg xmlns="http://www.w3.org/2000/svg" viewBox="0 0 489 318"><path d="M278.82 266.91l34.53-73.22.19-.4h.46l67.5-.89h-.1a36.45 36.45 0 0 0 7-1.71 44.08 44.08 0 0 0 6.63-2.93 39.5 39.5 0 0 0 11.21-9 41.5 41.5 0 0 0 7.3-12.39 54.71 54.71 0 0 0 3.19-14.15 63 63 0 0 0-.14-14.53 38.57 38.57 0 0 0-4.46-13.55 33.46 33.46 0 0 0-9.37-10.58 45.32 45.32 0 0 0-6.12-3.71 54.44 54.44 0 0 0-6.68-2.68 62.26 62.26 0 0 0-14.21-2.69c-1.2-.08-2.4-.13-3.59-.13l-3.68.06-7.46.12-29.82.44c-9.94.16-19.88.24-29.82.3s-19.89.16-29.83.15h-1.25l-.5-1.07L258 79l-5.88-12.68-5.81-12.71-11.57-25.5c-3.81-8.51-7.67-17-11.42-25.52l.36-.18c4.25 8.3 8.39 16.65 12.58 25l12.41 25L254.86 65 261 77.55l12.22 25.14-1.72-1.08c9.94-.21 19.87-.34 29.81-.45s19.88-.25 29.81-.29l29.82-.16h11.22c1.31 0 2.58.09 3.86.19a65.07 65.07 0 0 1 15 3 55.76 55.76 0 0 1 7.11 3 47.4 47.4 0 0 1 6.57 4.09 37.1 37.1 0 0 1 10.1 11.61 41.87 41.87 0 0 1 4.68 14.66 65.66 65.66 0 0 1 0 15.22 57.16 57.16 0 0 1-3.5 14.81 44 44 0 0 1-7.88 13.09 42.24 42.24 0 0 1-12 9.46 43.47 43.47 0 0 1-14.52 4.77h-.1l-67.5.11.64-.41-35.47 72.78z" data-name="D - left 2"/><path fill="none" d="M0 0h489v318H0z"/></svg>