<svg
    xmlns="http://www.w3.org/2000/svg" viewBox="0 0 489 318" className="A_left_2a">
    <path d="M195.68 107.6c-1.83 4.94-4 9.69-6.32 14.39-1.15 2.35-2.32 4.68-3.55 7s-2.48 4.59-3.85 6.82c-2.72 4.46-5.79 8.73-8.39 13.26s-4.94 9.2-7.11 14c-1.1 2.38-2.16 4.77-3.3 7.12s-2.32 4.69-3.5 7c-2.37 4.65-4.73 9.31-7.28 13.86a300.22 300.22 0 0 1-16.7 26.58l-.36-.2a300.16 300.16 0 0 1 13.3-28.43c2.45-4.62 5.09-9.12 7.72-13.64 1.32-2.25 2.63-4.51 4-6.73s2.8-4.42 4.2-6.63c2.83-4.41 5.51-8.89 7.89-13.54s4.33-9.53 6.61-14.24c1.13-2.35 2.36-4.66 3.65-6.93s2.6-4.52 3.95-6.76c2.72-4.47 5.51-8.89 8.68-13.11z" data-name="A - left 2"/>
    <path fill="none" d="M0 0h489v318H0z"/>
</svg>