<svg
    xmlns="http://www.w3.org/2000/svg" viewBox="0 0 489 318" className="A_left_1a">
    <path d="M49.32 259.42c3.51-9.45 7.42-18.71 11.4-27.94l3-6.91 3.09-6.87c2-4.59 4.2-9.13 6.41-13.65 4.43-9 9.24-17.87 13.55-27s8.34-18.24 12.23-27.51c1.95-4.63 3.85-9.29 5.84-13.9s4-9.21 6.07-13.8c4.08-9.19 8.14-18.38 12.39-27.48s8.63-18.15 13.13-27.14 9.08-17.95 13.88-26.8l.36.16c-3.62 9.4-7.44 18.71-11.37 28s-8 18.45-12.12 27.61-8.52 18.21-12.86 27.27c-2.16 4.54-4.33 9.07-6.56 13.57s-4.52 9-6.78 13.48c-4.52 9-9 18-13 27.19s-7.72 18.57-11.7 27.8q-3 6.92-6.21 13.73L66.82 226l-3.29 6.78c-4.43 9-9 18-13.85 26.81z" data-name="A - left 1"/>
    <path fill="none" d="M0 0h489v318H0z"/>
</svg>