<svg
    xmlns="http://www.w3.org/2000/svg" viewBox="0 0 489 318"className="A_right_2a">
    <path d="M227.63 38.43c4.2 7.22 8.18 14.54 12 21.93s7.65 14.8 11.2 22.33l5.19 11.38c1.72 3.79 3.44 7.59 5.25 11.34 3.61 7.51 7.48 14.88 11.43 22.22s7.86 14.7 11.65 22.12S292 164.56 295.68 172c7.31 15 14.39 30.06 20.95 45.39l-.26.14c-8.27-14.5-16-29.25-23.55-44.11-3.75-7.44-7.34-15-11-22.46s-7.15-15.05-10.6-22.63-7-15.12-10.82-22.53c-1.9-3.71-3.88-7.37-5.88-11l-5.93-11c-3.86-7.38-7.49-14.89-11-22.42s-7-15.13-10.21-22.82z"/>
    <path fill="none" d="M0 0h489v318H0z"/>
</svg>