<svg xmlns="http://www.w3.org/2000/svg" viewBox="0 0 489 318" className="A_right_1b">
    <g data-name="A - right 1">
        <path d="M197.68 119.41c3.48 5.51 6.58 11.2 9.59 16.92l2.23 4.31 2.16 4.35c1.45 2.89 2.8 5.82 4.09 8.79 2.57 5.94 4.77 12.06 7.46 17.94s5.67 11.62 8.79 17.28c1.55 2.84 3.14 5.66 4.65 8.53s3 5.74 4.43 8.63c2.92 5.77 5.86 11.53 8.6 17.39s5.37 11.77 7.88 17.74 4.93 12 7.13 18.09l-.36.18c-3.38-5.56-6.56-11.2-9.62-16.91s-6-11.47-8.87-17.26-5.49-11.71-8.15-17.61c-1.34-2.94-2.67-5.89-3.94-8.87s-2.48-6-3.73-9c-2.48-6-5-11.92-8-17.69s-6.27-11.34-9.29-17.06c-1.5-2.87-2.94-5.76-4.29-8.71l-2-4.4-2-4.44c-2.57-5.94-5.06-11.92-7.16-18.08z"/>
        <path d="M275.5 257.5a21.74 21.74 0 0 1-4 .78 38.29 38.29 0 0 1-4 .22 33.51 33.51 0 0 1-4-.22 20.94 20.94 0 0 1-4-.78 20.94 20.94 0 0 1 4-.78 33.51 33.51 0 0 1 4-.22 38.29 38.29 0 0 1 4 .22 21.74 21.74 0 0 1 4 .78z"/>
    </g>
    <path fill="none" d="M0 0h489v318H0z"/>
</svg>