<svg
    xmlns="http://www.w3.org/2000/svg" viewBox="0 0 489 318" className="A_right_1a">
    <path d="M193.69 102.42c3 5.34 5.6 10.84 8.12 16.37 1.25 2.77 2.48 5.55 3.65 8.35s2.31 5.62 3.33 8.48c2.06 5.72 3.75 11.59 5.93 17.26s4.65 11.22 7.29 16.71c1.31 2.75 2.65 5.48 3.91 8.24s2.49 5.55 3.71 8.33c2.42 5.57 4.86 11.14 7.1 16.78 4.41 11.33 8.56 22.75 12 34.48l-.38.16c-5.77-10.77-10.78-21.85-15.54-33-2.35-5.61-4.49-11.29-6.65-17-1.07-2.84-2.15-5.68-3.17-8.55s-2-5.75-3-8.63c-2-5.76-4.05-11.47-6.46-17s-5.29-11-7.82-16.49c-1.27-2.76-2.44-5.57-3.55-8.4s-2.18-5.67-3.22-8.52c-2.06-5.72-4-11.47-5.63-17.38z" data-name="A - right 1"/>
    <path fill="none" d="M0 0h489v318H0z"/>
</svg>