<svg xmlns="http://www.w3.org/2000/svg" viewBox="0 0 489 318"><path d="M238.5 38.7c-6.58.76-13.17 1.1-19.75 1.35l-4.94.15-4.93.07c-3.3.06-6.59 0-9.88-.11-6.58-.25-13.17-.9-19.75-1s-13.17.1-19.75.45c-3.29.16-6.58.38-9.88.51s-6.58.21-9.87.27c-6.58.14-13.17.31-19.75.25s-13.17-.23-19.75-.55-13.17-.74-19.75-1.39v-.4c6.58-.65 13.17-1.08 19.75-1.38s13.17-.46 19.75-.55 13.17.11 19.75.25c3.29.06 6.58.14 9.87.27s6.59.35 9.88.51c6.58.35 13.17.6 19.75.45s13.17-.76 19.75-1c3.29-.12 6.58-.17 9.88-.11l4.93.07 4.94.15c6.58.25 13.17.59 19.75 1.35z" data-name="A - top"/><path fill="none" d="M0 0h489v318H0z"/></svg>