<svg xmlns="http://www.w3.org/2000/svg" viewBox="0 0 489 318"><path d="M283.55 257.3c11-.76 22-1.1 33.05-1.35l8.26-.15 8.26-.07c5.5-.06 11 0 16.52.11l16.53.55 8.27.29 8.27.17c2.76 0 5.51.06 8.27 0a54.85 54.85 0 0 0 8.08-1.11 99.33 99.33 0 0 0 15.7-4.65 111.72 111.72 0 0 0 14.72-7 108.42 108.42 0 0 0 13.48-9 98.07 98.07 0 0 0 21.53-23.95c1.55-2.21 2.81-4.59 4.16-6.94.7-1.15 1.24-2.39 1.84-3.6l1.79-3.64 1.57-3.75.78-1.88a18.1 18.1 0 0 0 .72-1.9l1.35-3.84c.46-1.28.92-2.56 1.26-3.88a177.46 177.46 0 0 0 6.34-32.2h.4a137 137 0 0 1-3.7 33c-.28 1.37-.69 2.71-1.09 4l-1.19 4c-.19.67-.41 1.33-.67 2l-.74 2-1.47 3.94-1.73 3.83c-.6 1.27-1.13 2.58-1.84 3.79-1.35 2.47-2.62 5-4.19 7.32-.76 1.19-1.49 2.39-2.31 3.53l-2.52 3.39c-.81 1.16-1.75 2.21-2.65 3.29l-1.38 1.6a19 19 0 0 1-1.42 1.56 102.16 102.16 0 0 1-12.54 11.26 98.09 98.09 0 0 1-29.77 15.14 122.35 122.35 0 0 1-16.19 3.92 66.56 66.56 0 0 1-8.29 1h-8.27l-8.26.17-8.26.29-16.52.55c-5.51.12-11 .17-16.54.11l-8.26-.07-8.27-.15c-11-.25-22.06-.59-33.08-1.35z" data-name="D - bottom"/><path fill="none" d="M0 0h489v318H0z"/></svg>