<svg xmlns="http://www.w3.org/2000/svg" viewBox="0 0 489 318"><path d="M240.61 38.3c29.05-1.26 58.12-1.76 87.19-1.93 14.53-.06 29.06.11 43.58.25l5.45.05h4.78l.77.08a101.38 101.38 0 0 1 10.91 1.85 138.25 138.25 0 0 1 21 6.46A136.32 136.32 0 0 1 434 54.79a116.23 116.23 0 0 1 17.72 12.84 104.91 104.91 0 0 1 7.86 7.64c.63.67 1.28 1.32 1.89 2l1.77 2.11c1.16 1.41 2.39 2.79 3.42 4.31a91.62 91.62 0 0 1 11 19.1c5.89 13.59 8.15 28.47 8.29 43.1.12 3.69 0 7.3-.1 10.93s-.17 7.26-.28 10.89c-.21 7.27-.47 14.53-.86 21.79h-.4c-.39-7.26-.65-14.52-.86-21.79-.11-3.63-.21-7.26-.28-10.89s-.12-7.28-.32-10.85l-.25-5.38c-.13-1.79-.38-3.57-.56-5.36l-.27-2.67c-.05-.44-.09-.89-.15-1.34l-.23-1.32-.91-5.29c-.24-1.78-.79-3.48-1.17-5.23l-.61-2.61-.31-1.3c-.11-.43-.26-.86-.39-1.28-.54-1.71-1.07-3.41-1.58-5.12a25.29 25.29 0 0 0-.89-2.53l-1-2.5-.94-2.51c-.33-.82-.73-1.62-1.09-2.44-.77-1.61-1.44-3.28-2.28-4.86l-2.58-4.71c-.89-1.55-1.92-3-2.87-4.55s-2.05-2.94-3.12-4.39l-1.61-2.16c-.57-.7-1.17-1.37-1.75-2a90.31 90.31 0 0 0-7.5-7.78c-10.66-9.78-23.68-16.74-37.28-21.42a147.12 147.12 0 0 0-20.88-5.38c-3.53-.62-7.09-1.17-10.61-1.46H376.71l-5.45.05c-14.52.14-29 .31-43.55.25-29-.17-58.06-.67-87.1-1.93z" data-name="D - top"/><path fill="none" d="M0 0h489v318H0z"/></svg>